<mxfile host="65bd71144e" modified="2020-12-18T19:57:51.739Z" agent="5.0 (Macintosh; Intel Mac OS X 10_15_7) AppleWebKit/537.36 (KHTML, like Gecko) Code/1.52.0 Chrome/83.0.4103.122 Electron/9.3.5 Safari/537.36" etag="rO127O08kKe7PMHRfAqU" version="13.10.0" type="embed">
    <diagram id="DbY18s5qPN7fBbZyV1m0" name="Page-1">
        <mxGraphModel dx="832" dy="313" grid="1" gridSize="10" guides="1" tooltips="1" connect="1" arrows="1" fold="1" page="1" pageScale="1" pageWidth="850" pageHeight="1100" math="0" shadow="0">
            <root>
                <mxCell id="0"/>
                <mxCell id="1" parent="0"/>
                <mxCell id="11" value="" style="shape=table;html=1;whiteSpace=wrap;startSize=0;container=1;collapsible=0;childLayout=tableLayout;shadow=1;" parent="1" vertex="1">
                    <mxGeometry x="250" y="120" width="90" height="30" as="geometry"/>
                </mxCell>
                <mxCell id="12" value="" style="shape=partialRectangle;html=1;whiteSpace=wrap;collapsible=0;dropTarget=0;pointerEvents=0;fillColor=none;top=0;left=0;bottom=0;right=0;points=[[0,0.5],[1,0.5]];portConstraint=eastwest;" parent="11" vertex="1">
                    <mxGeometry width="90" height="30" as="geometry"/>
                </mxCell>
                <mxCell id="13" value="USER" style="shape=partialRectangle;html=1;whiteSpace=wrap;connectable=0;overflow=hidden;fillColor=none;top=0;left=0;bottom=0;right=0;" parent="12" vertex="1">
                    <mxGeometry width="90" height="30" as="geometry"/>
                </mxCell>
                <mxCell id="14" value="" style="shape=table;html=1;whiteSpace=wrap;startSize=0;container=1;collapsible=0;childLayout=tableLayout;shadow=1;" parent="1" vertex="1">
                    <mxGeometry x="355" y="300" width="95" height="40" as="geometry"/>
                </mxCell>
                <mxCell id="15" value="" style="shape=partialRectangle;html=1;whiteSpace=wrap;collapsible=0;dropTarget=0;pointerEvents=0;fillColor=none;top=0;left=0;bottom=0;right=0;points=[[0,0.5],[1,0.5]];portConstraint=eastwest;" parent="14" vertex="1">
                    <mxGeometry width="95" height="40" as="geometry"/>
                </mxCell>
                <mxCell id="16" value="Artworks" style="shape=partialRectangle;html=1;whiteSpace=wrap;connectable=0;overflow=hidden;fillColor=none;top=0;left=0;bottom=0;right=0;" parent="15" vertex="1">
                    <mxGeometry width="95" height="40" as="geometry"/>
                </mxCell>
                <mxCell id="17" value="" style="shape=table;html=1;whiteSpace=wrap;startSize=0;container=1;collapsible=0;childLayout=tableLayout;shadow=1;" parent="1" vertex="1">
                    <mxGeometry x="160" y="300" width="85" height="40" as="geometry"/>
                </mxCell>
                <mxCell id="18" value="" style="shape=partialRectangle;html=1;whiteSpace=wrap;collapsible=0;dropTarget=0;pointerEvents=0;fillColor=none;top=0;left=0;bottom=0;right=0;points=[[0,0.5],[1,0.5]];portConstraint=eastwest;" parent="17" vertex="1">
                    <mxGeometry width="85" height="40" as="geometry"/>
                </mxCell>
                <mxCell id="19" value="Artist" style="shape=partialRectangle;html=1;whiteSpace=wrap;connectable=0;overflow=hidden;fillColor=none;top=0;left=0;bottom=0;right=0;" parent="18" vertex="1">
                    <mxGeometry width="85" height="40" as="geometry"/>
                </mxCell>
                <mxCell id="21" value="&lt;ol&gt;&lt;li&gt;Artist Name&lt;/li&gt;&lt;li&gt;Bio&lt;/li&gt;&lt;li&gt;URL&lt;/li&gt;&lt;/ol&gt;" style="text;strokeColor=none;fillColor=none;html=1;whiteSpace=wrap;verticalAlign=middle;overflow=hidden;shadow=1;" parent="1" vertex="1">
                    <mxGeometry x="150" y="340" width="120" height="80" as="geometry"/>
                </mxCell>
                <mxCell id="23" value="&lt;ul&gt;&lt;li&gt;Title&lt;/li&gt;&lt;li&gt;Medium&lt;/li&gt;&lt;li&gt;Description&lt;/li&gt;&lt;li&gt;URLs of each individual work&lt;/li&gt;&lt;/ul&gt;" style="text;strokeColor=none;fillColor=none;html=1;whiteSpace=wrap;verticalAlign=middle;overflow=hidden;shadow=1;" parent="1" vertex="1">
                    <mxGeometry x="365" y="340" width="130" height="115" as="geometry"/>
                </mxCell>
                <mxCell id="24" value="" style="shape=table;html=1;whiteSpace=wrap;startSize=0;container=1;collapsible=0;childLayout=tableLayout;shadow=1;" parent="1" vertex="1">
                    <mxGeometry x="250" y="470" width="90" height="40" as="geometry"/>
                </mxCell>
                <mxCell id="25" value="" style="shape=partialRectangle;html=1;whiteSpace=wrap;collapsible=0;dropTarget=0;pointerEvents=0;fillColor=none;top=0;left=0;bottom=0;right=0;points=[[0,0.5],[1,0.5]];portConstraint=eastwest;" parent="24" vertex="1">
                    <mxGeometry width="90" height="40" as="geometry"/>
                </mxCell>
                <mxCell id="26" value="Galleries" style="shape=partialRectangle;html=1;whiteSpace=wrap;connectable=0;overflow=hidden;fillColor=none;top=0;left=0;bottom=0;right=0;" parent="25" vertex="1">
                    <mxGeometry width="90" height="40" as="geometry"/>
                </mxCell>
                <mxCell id="37" value="User may enter as either a spectator, &lt;br&gt;artist&amp;nbsp;or a curator" style="text;html=1;align=center;verticalAlign=middle;resizable=0;points=[];autosize=1;fontFamily=Times New Roman;" parent="1" vertex="1">
                    <mxGeometry x="55" y="100" width="190" height="30" as="geometry"/>
                </mxCell>
                <mxCell id="51" value="As curator&lt;br&gt;they can create&lt;br&gt;galleries by selecting&lt;br&gt;artworks from the&amp;nbsp;&lt;br&gt;database" style="text;html=1;align=center;verticalAlign=middle;resizable=0;points=[];autosize=1;fontFamily=Times New Roman;" parent="1" vertex="1">
                    <mxGeometry y="170" width="120" height="70" as="geometry"/>
                </mxCell>
                <mxCell id="53" value="All who enter can view the&lt;br&gt;&amp;nbsp;public galleries" style="text;html=1;align=center;verticalAlign=middle;resizable=0;points=[];autosize=1;fontFamily=Times New Roman;" parent="1" vertex="1">
                    <mxGeometry x="80" y="505" width="140" height="30" as="geometry"/>
                </mxCell>
                <mxCell id="54" value="Full Icebox" style="text;html=1;align=center;verticalAlign=middle;resizable=0;points=[];autosize=1;fontFamily=Times New Roman;" parent="1" vertex="1">
                    <mxGeometry x="245" y="30" width="70" height="20" as="geometry"/>
                </mxCell>
                <mxCell id="55" style="edgeStyle=orthogonalEdgeStyle;rounded=0;orthogonalLoop=1;jettySize=auto;html=1;exitX=0;exitY=0.5;exitDx=0;exitDy=0;entryX=0;entryY=0.5;entryDx=0;entryDy=0;endArrow=ERmany;endFill=0;" parent="1" source="12" target="25" edge="1">
                    <mxGeometry relative="1" as="geometry">
                        <mxPoint x="119" y="480" as="targetPoint"/>
                        <Array as="points">
                            <mxPoint x="119" y="135"/>
                            <mxPoint x="119" y="490"/>
                        </Array>
                    </mxGeometry>
                </mxCell>
                <mxCell id="57" style="edgeStyle=none;rounded=0;orthogonalLoop=1;jettySize=auto;html=1;exitX=0.5;exitY=0;exitDx=0;exitDy=0;endArrow=none;endFill=0;" parent="1" source="56" edge="1">
                    <mxGeometry relative="1" as="geometry">
                        <mxPoint x="295" y="150" as="targetPoint"/>
                    </mxGeometry>
                </mxCell>
                <mxCell id="62" style="edgeStyle=none;rounded=0;orthogonalLoop=1;jettySize=auto;html=1;exitX=0.5;exitY=1;exitDx=0;exitDy=0;startArrow=none;startFill=0;endArrow=none;endFill=0;" parent="1" source="56" edge="1">
                    <mxGeometry relative="1" as="geometry">
                        <mxPoint x="295" y="320" as="targetPoint"/>
                    </mxGeometry>
                </mxCell>
                <mxCell id="56" value="As artist they can create and add their profile to the database" style="whiteSpace=wrap;html=1;" parent="1" vertex="1">
                    <mxGeometry x="235" y="180" width="120" height="60" as="geometry"/>
                </mxCell>
                <mxCell id="63" style="edgeStyle=none;rounded=0;orthogonalLoop=1;jettySize=auto;html=1;exitX=1;exitY=0.5;exitDx=0;exitDy=0;startArrow=ERmany;startFill=0;endArrow=none;endFill=0;" parent="1" source="18" edge="1">
                    <mxGeometry relative="1" as="geometry">
                        <mxPoint x="300" y="320" as="targetPoint"/>
                    </mxGeometry>
                </mxCell>
                <mxCell id="64" style="edgeStyle=none;rounded=0;orthogonalLoop=1;jettySize=auto;html=1;exitX=0;exitY=0.5;exitDx=0;exitDy=0;startArrow=ERmany;startFill=0;endArrow=none;endFill=0;" parent="1" source="15" edge="1">
                    <mxGeometry relative="1" as="geometry">
                        <mxPoint x="300" y="320" as="targetPoint"/>
                    </mxGeometry>
                </mxCell>
                <mxCell id="67" style="edgeStyle=none;rounded=0;orthogonalLoop=1;jettySize=auto;html=1;exitX=0.5;exitY=1;exitDx=0;exitDy=0;entryX=0.5;entryY=0;entryDx=0;entryDy=0;startArrow=none;startFill=0;endArrow=ERzeroToMany;endFill=1;" parent="1" source="65" target="66" edge="1">
                    <mxGeometry relative="1" as="geometry"/>
                </mxCell>
                <mxCell id="65" value="Curator&lt;br&gt;&lt;hr&gt;Name: String&lt;br&gt;Email: String&lt;br&gt;Galleries:&amp;nbsp; [{(Type: String)Ref: artist page}]" style="whiteSpace=wrap;html=1;" parent="1" vertex="1">
                    <mxGeometry x="580" y="145" width="240" height="130" as="geometry"/>
                </mxCell>
                <mxCell id="66" value="Artist&lt;br&gt;&lt;hr&gt;bio:String&lt;br&gt;url: String&lt;br&gt;artworks:{String}" style="whiteSpace=wrap;html=1;" parent="1" vertex="1">
                    <mxGeometry x="620" y="400" width="160" height="110" as="geometry"/>
                </mxCell>
                <mxCell id="68" style="edgeStyle=none;rounded=0;orthogonalLoop=1;jettySize=auto;html=1;exitX=0.5;exitY=1;exitDx=0;exitDy=0;startArrow=none;startFill=0;endArrow=ERzeroToMany;endFill=1;" parent="1" source="66" target="66" edge="1">
                    <mxGeometry relative="1" as="geometry"/>
                </mxCell>
                <mxCell id="69" value="MVP" style="text;html=1;resizable=0;autosize=1;align=center;verticalAlign=middle;points=[];fillColor=none;strokeColor=none;rounded=0;" parent="1" vertex="1">
                    <mxGeometry x="680" y="30" width="40" height="20" as="geometry"/>
                </mxCell>
            </root>
        </mxGraphModel>
    </diagram>
</mxfile>